# Blender 3.3.0
# www.blender.org
mtllib hit-hand-2-finger-basecover.mtl
o hit-hand-2-finger-basecover
v -0.011941 -0.007828 -0.005997
v -0.014974 0.002968 -0.006004
v -0.004670 0.015607 -0.006020
v 0.001006 0.016305 0.005976
v 0.007393 0.016617 -0.000028
v -0.001992 0.018227 -0.000024
v 0.000999 0.016295 -0.006024
v -0.009673 0.012850 -0.006015
v -0.010564 0.014771 -0.000016
v 0.011721 0.012266 -0.006027
v 0.003297 -0.013637 -0.006002
v 0.014583 0.013110 -0.000031
v 0.014301 0.012532 -0.003556
v 0.014245 0.012420 0.003939
v 0.003438 -0.013930 -0.005029
v 0.006519 0.014824 0.005974
v 0.011730 0.012275 0.005972
v 0.013098 0.012055 0.005408
v 0.006512 0.014815 -0.006026
v 0.013089 0.012047 -0.005465
v -0.007655 -0.011604 -0.005997
v -0.001287 -0.013850 -0.005893
v -0.014504 -0.002723 -0.006000
v -0.016547 -0.002805 0.000001
v 0.003439 -0.013932 0.005053
v 0.000440 -0.015655 0.000001
v -0.013282 0.008423 -0.006009
v 0.003444 -0.013244 0.005998
v -0.001288 -0.013800 0.006001
v -0.014497 -0.002714 0.006000
v -0.007648 -0.011594 0.006003
v -0.004663 0.015617 0.005980
v -0.009666 0.012860 0.005985
v 0.013921 0.012235 -0.004533
v -0.003030 -0.015477 -0.000008
v -0.015011 -0.005874 0.000003
v -0.011530 -0.011284 0.000233
v -0.016637 0.002202 -0.000003
v -0.016189 0.006710 -0.000006
v -0.013275 0.008432 0.005990
v -0.011934 -0.007819 0.006003
v -0.008680 -0.012072 -0.003574
v -0.014180 0.010065 -0.000010
v -0.014966 0.002978 0.005996
vn -0.0006 -0.0008 -1.0000
vn 0.1649 0.9602 0.2253
vn -0.1128 0.9280 -0.3551
vn 0.1646 0.9599 -0.2271
vn -0.4556 0.8259 -0.3321
vn -0.3640 0.9022 -0.2316
vn 0.4312 0.8842 -0.1796
vn 0.4305 0.8824 0.1901
vn 0.9252 -0.3792 -0.0118
vn 0.3566 0.8797 0.3147
vn 0.2467 0.9181 0.3102
vn 0.3574 0.7301 0.5825
vn 0.2463 0.9176 -0.3119
vn 0.3579 0.8785 -0.3165
vn 0.3567 0.7293 -0.5839
vn -0.0189 -0.0995 -0.9949
vn -0.9435 -0.0780 -0.3222
vn 0.4985 -0.8669 -0.0002
vn 0.9253 -0.3789 0.0129
vn 0.9246 -0.3811 -0.0002
vn -0.7390 0.6020 -0.3025
vn 0.3740 0.7888 0.4878
vn 0.8982 -0.3575 0.2560
vn 0.0007 0.0008 1.0000
vn 0.0006 0.0008 1.0000
vn -0.4552 0.8264 0.3314
vn -0.3637 0.9025 0.2306
vn -0.1124 0.9286 0.3537
vn 0.3721 0.8382 -0.3986
vn 0.3730 0.7866 -0.4921
vn -0.0485 -0.9589 -0.2795
vn -0.8533 -0.4286 -0.2970
vn -0.8540 -0.4275 -0.2965
vn -0.8113 -0.5324 -0.2418
vn -0.8536 -0.4271 0.2982
vn -0.9623 0.0955 -0.2545
vn -0.9629 -0.0175 -0.2691
vn -0.7386 0.6024 0.3025
vn 0.0536 -0.9539 -0.2952
vn 0.0370 -0.9524 -0.3026
vn 0.9021 -0.3569 -0.2424
vn 0.9031 -0.3574 -0.2380
vn -0.8185 -0.5160 0.2526
vn -0.8529 -0.4282 0.2987
vn -0.6427 -0.6871 -0.3387
vn -0.6084 -0.6906 -0.3910
vn -0.3367 -0.8877 -0.3141
vn -0.8935 0.2768 -0.3537
vn -0.8287 0.4958 -0.2598
vn -0.7627 0.5856 -0.2745
vn -0.7623 0.5861 0.2745
vn -0.8284 0.4962 0.2600
vn 0.3613 -0.1184 -0.9249
vn 0.7881 -0.2881 0.5440
vn 0.7444 -0.2710 -0.6103
vn -0.3082 -0.8895 -0.3372
vn -0.6129 -0.6956 0.3749
vn -0.9626 -0.0171 0.2703
vn -0.9431 -0.0775 0.3234
vn -0.9620 0.0959 0.2555
vn -0.4242 -0.8736 0.2384
vn -0.0499 -0.9582 0.2819
vn 0.3625 -0.1168 0.9246
vn -0.4410 -0.8854 -0.1466
vn -0.8931 0.2774 0.3543
vn 0.0344 -0.9520 0.3043
vn 0.0950 -0.8049 0.5857
vn -0.3083 -0.8894 0.3376
s 0
f 1//1 2//1 3//1
f 4//2 5//2 6//2
f 7//3 3//3 6//3
f 7//4 6//4 5//4
f 8//5 9//5 3//5
f 9//6 6//6 3//6
f 3//1 10//1 1//1
f 11//1 1//1 10//1
f 12//7 13//7 5//7
f 12//8 5//8 14//8
f 12//9 15//9 13//9
f 16//10 14//10 5//10
f 16//11 5//11 4//11
f 16//12 17//12 18//12
f 19//1 10//1 3//1
f 19//1 3//1 7//1
f 19//13 7//13 5//13
f 19//14 5//14 13//14
f 19//15 20//15 10//15
f 21//16 11//16 22//16
f 21//1 1//1 11//1
f 23//17 24//17 2//17
f 23//1 2//1 1//1
f 25//18 26//18 15//18
f 25//19 12//19 14//19
f 25//20 15//20 12//20
f 27//21 9//21 8//21
f 27//1 8//1 3//1
f 27//1 3//1 2//1
f 14//22 16//22 18//22
f 14//23 28//23 25//23
f 29//24 17//24 16//24
f 29//25 16//25 30//25
f 29//25 30//25 31//25
f 29//25 28//25 17//25
f 32//26 9//26 33//26
f 32//27 6//27 9//27
f 32//28 4//28 6//28
f 32//25 16//25 4//25
f 32//25 30//25 16//25
f 34//29 19//29 13//29
f 34//30 20//30 19//30
f 35//31 22//31 26//31
f 36//32 23//32 1//32
f 36//33 24//33 23//33
f 36//34 1//34 37//34
f 36//35 30//35 24//35
f 38//36 39//36 2//36
f 38//37 2//37 24//37
f 40//38 33//38 9//38
f 40//25 32//25 33//25
f 40//25 30//25 32//25
f 11//39 15//39 26//39
f 11//40 26//40 22//40
f 15//41 34//41 13//41
f 15//42 11//42 34//42
f 41//25 31//25 30//25
f 41//43 36//43 37//43
f 41//44 30//44 36//44
f 42//45 37//45 1//45
f 42//46 1//46 21//46
f 42//47 21//47 35//47
f 39//48 27//48 2//48
f 43//49 27//49 39//49
f 43//50 9//50 27//50
f 43//51 40//51 9//51
f 43//52 39//52 40//52
f 20//53 11//53 10//53
f 18//54 28//54 14//54
f 20//55 34//55 11//55
f 22//56 35//56 21//56
f 37//57 31//57 41//57
f 44//58 38//58 24//58
f 44//59 24//59 30//59
f 44//60 39//60 38//60
f 44//25 30//25 40//25
f 35//61 31//61 37//61
f 35//62 26//62 29//62
f 18//63 17//63 28//63
f 37//64 42//64 35//64
f 39//65 44//65 40//65
f 25//66 29//66 26//66
f 25//67 28//67 29//67
f 29//68 31//68 35//68
