# Blender 3.3.0
# www.blender.org
mtllib hit-hand-2-finger-phamed.mtl
o hit-hand-2-finger-phamed
v 0.018877 -0.009597 0.008902
v 0.020377 -0.008809 0.010171
v 0.008436 -0.010206 0.009794
v -0.010853 0.009621 -0.004221
v -0.011288 -0.009920 -0.002447
v -0.011276 0.010162 -0.002447
v -0.009148 0.010196 -0.007400
v 0.002271 0.010571 0.001900
v -0.009160 -0.009957 -0.007400
v -0.002750 0.008816 -0.011251
v 0.011862 0.000107 -0.013783
v -0.002688 -0.008384 -0.011264
v 0.002259 -0.010345 0.001900
v -0.000037 -0.010009 -0.007400
v 0.015642 -0.009686 -0.007743
v -0.010664 0.010086 0.002914
v 0.007986 -0.010209 0.009834
v 0.010145 -0.007203 0.012725
v -0.004254 -0.008607 0.012324
v -0.006113 -0.009480 0.010204
v -0.008740 -0.009715 0.006838
v -0.002852 -0.006857 0.013682
v 0.002416 0.000113 0.014904
v -0.001543 0.000115 0.014899
v -0.005796 -0.009472 -0.010206
v -0.005717 0.009695 -0.010241
v 0.012600 -0.009983 0.005682
v 0.019107 0.009779 0.008950
v 0.027571 0.009698 0.001085
v 0.008465 0.010425 0.009793
v 0.010153 0.007420 0.012725
v 0.027571 0.009698 -0.002920
v 0.032611 0.008695 -0.000958
v 0.008002 0.010428 0.009834
v -0.004243 0.008840 0.012324
v -0.008728 0.009954 0.006838
v -0.006073 0.009719 0.010205
v -0.002844 0.007088 0.013682
v 0.032611 0.008695 0.001742
v 0.032118 0.008695 0.004123
v 0.030721 0.008696 0.006113
v 0.027812 0.008698 0.007994
v 0.022597 0.000101 0.011962
v -0.010864 -0.009479 -0.004221
v 0.000098 0.009116 -0.011371
v -0.000025 0.010238 -0.007400
v 0.024112 0.009700 -0.004918
v 0.030359 0.008696 -0.006679
v 0.024870 0.008700 -0.009382
v 0.015639 0.009863 -0.008118
v 0.021799 -0.005880 0.011370
v 0.028730 -0.008503 0.006565
v 0.028208 -0.006402 0.007649
v 0.007608 0.002710 0.014216
v 0.021295 0.007491 0.010960
v 0.025589 -0.004701 -0.009591
v 0.029035 -0.004703 -0.008204
v 0.025588 -0.008501 -0.009591
v 0.014273 0.000106 -0.013337
v 0.029284 0.006497 -0.007660
v 0.011496 0.004184 -0.013475
v 0.011491 -0.003969 -0.013475
v -0.010676 -0.009845 0.002914
v 0.015651 -0.009696 -0.007400
v 0.032601 -0.008505 -0.000918
v 0.031601 -0.008504 -0.005521
v -0.009057 0.009620 0.006282
v 0.008292 -0.010207 0.009807
v -0.006186 -0.009456 0.010270
v 0.015627 -0.009653 -0.008118
v 0.029202 -0.006703 -0.007718
v 0.031603 -0.004704 -0.005521
v -0.000013 -0.008884 -0.011380
v 0.010424 -0.006807 -0.012589
v -0.006446 0.008818 -0.009826
v 0.019094 -0.009569 0.008895
v 0.032513 -0.008505 0.001667
v 0.031711 -0.006404 0.004770
v 0.032601 -0.008505 0.001080
v 0.032347 -0.008505 -0.002979
v 0.032611 0.008695 -0.000998
v 0.015654 0.009896 -0.007743
v -0.006175 0.009692 0.010271
v 0.032117 0.006495 0.004123
v 0.019155 0.009773 0.008948
v 0.030720 0.006496 0.006113
v 0.015606 0.009774 -0.008627
v 0.021664 -0.006399 0.011238
v 0.022359 -0.003294 0.011791
v 0.007606 -0.000490 0.014326
v 0.006292 0.002022 0.014462
v 0.022192 0.004507 0.011664
v 0.013062 0.000107 -0.013568
v 0.010432 0.007023 -0.012589
v 0.014929 -0.006900 -0.011945
v -0.006693 0.008818 0.009664
v -0.006692 0.009618 0.009664
v -0.009068 -0.009480 0.006282
v -0.006150 -0.009468 0.010237
v 0.005958 -0.009675 -0.008869
v 0.015594 -0.009564 -0.008627
v -0.006456 -0.009482 -0.009826
v -0.006445 0.009618 -0.009826
v 0.031716 0.002096 0.004770
v 0.032579 -0.008505 0.001377
v 0.032348 -0.006705 -0.002979
v 0.032610 0.006895 -0.000998
v 0.032610 0.006495 -0.000918
v -0.006241 0.009701 0.010195
v -0.006124 0.009706 0.010238
v -0.005149 -0.008283 0.011407
v 0.015625 0.009826 -0.008364
v 0.005970 0.009896 -0.008869
v 0.021728 -0.006136 0.011308
v 0.006866 -0.000308 0.014439
v 0.008942 0.001992 0.014056
v 0.014937 0.007111 -0.011945
v -0.006252 -0.009465 0.010195
v -0.006703 -0.009482 0.009664
v 0.015613 -0.009616 -0.008364
v -0.006456 -0.008382 -0.009826
v 0.032610 0.006495 0.001742
v -0.006470 0.008818 0.009930
v -0.005668 -0.008282 0.010850
v -0.005139 0.008317 0.011407
v 0.006366 0.009952 -0.008509
v 0.006357 0.000111 0.014513
v -0.006703 -0.008382 0.009664
v -0.006186 -0.008282 0.010270
v -0.006252 -0.008382 0.010195
v 0.006354 -0.009731 -0.008509
v -0.005658 0.008318 0.010851
v 0.008855 0.000109 0.014130
v -0.006242 0.008818 0.010195
v -0.006176 0.008318 0.010271
v -0.006480 -0.008382 0.009930
v 0.008298 -0.000333 0.014219
vn 0.0901 -0.8903 0.4464
vn -0.9727 0.0006 -0.2321
vn -0.8014 0.4914 -0.3410
vn -0.0285 0.9996 -0.0054
vn -0.8813 0.0005 -0.4726
vn -0.1707 0.0001 -0.9853
vn -0.0297 -0.9995 -0.0053
vn -0.0057 -0.9994 -0.0347
vn 0.0197 -0.9990 -0.0410
vn -0.0360 0.9992 0.0183
vn 0.0618 -0.7146 0.6968
vn 0.0498 -0.7107 0.7018
vn -0.0485 -0.9931 0.1072
vn 0.0658 -0.2204 0.9732
vn 0.0401 -0.6324 0.7736
vn -0.0013 -0.1717 0.9851
vn -0.0056 -0.9842 -0.1768
vn -0.3221 -0.0004 -0.9467
vn -0.3224 -0.0004 -0.9466
vn 0.0587 -0.9983 0.0053
vn 0.0652 0.9961 0.0599
vn 0.0981 0.7227 0.6842
vn 0.1952 0.9808 -0.0000
vn 0.0331 0.9994 -0.0075
vn 0.0380 0.9993 -0.0000
vn 0.0662 0.7156 0.6953
vn 0.0505 0.7106 0.7018
vn -0.0472 0.9932 0.1066
vn -0.0376 0.9979 0.0521
vn 0.0076 0.9999 0.0125
vn -0.0341 0.9985 0.0426
vn 0.0408 0.6323 0.7737
vn -0.0012 0.1717 0.9851
vn -0.6820 0.0004 0.7313
vn -0.6962 0.0004 0.7178
vn -0.6960 0.0004 0.7180
vn 0.1901 0.9810 0.0394
vn 0.5421 0.0581 0.8383
vn 0.1479 0.9836 0.1033
vn 0.1213 0.9853 0.1204
vn -0.7594 -0.5653 -0.3220
vn -0.9726 0.0006 -0.2323
vn -0.8813 0.0005 -0.4725
vn -0.0962 0.5935 -0.7991
vn -0.0045 0.9838 -0.1790
vn -0.0046 0.9994 -0.0346
vn 0.0999 0.9744 -0.2013
vn 0.1058 0.9776 -0.1821
vn 0.0542 0.9942 -0.0928
vn 0.4571 -0.3155 0.8316
vn 0.0639 0.2697 0.9608
vn 0.1055 0.7114 0.6949
vn 0.3734 -0.0001 -0.9277
vn 0.3732 0.0345 -0.9271
vn 0.3264 0.0322 -0.9447
vn 0.3142 -0.0001 -0.9493
vn 0.3790 0.0365 -0.9247
vn 0.4346 0.1811 -0.8822
vn 0.6483 0.0225 -0.7610
vn 0.2476 0.1361 -0.9592
vn -0.1340 0.0627 -0.9890
vn -0.0675 0.2554 -0.9645
vn 0.2269 -0.1222 -0.9662
vn -0.1348 -0.0625 -0.9889
vn -0.0372 -0.9991 0.0182
vn -0.0388 -0.9979 0.0522
vn -0.0353 -0.9985 0.0426
vn -0.9935 0.0006 0.1134
vn 0.0277 -0.9992 -0.0299
vn 0.0393 -0.9991 -0.0131
vn 0.0648 -0.9979 -0.0068
vn 0.0414 -0.9991 -0.0123
vn 0.0733 -0.9973 -0.0085
vn 0.0781 -0.9965 -0.0311
vn -0.8608 0.0005 0.5090
vn -0.8864 0.1374 0.4420
vn -0.9025 0.0005 0.4307
vn 0.0655 -0.7405 0.6688
vn 0.0645 -0.7336 0.6765
vn 0.0076 -0.9999 0.0117
vn 0.0080 -0.9999 0.0114
vn -0.0358 -0.9112 0.4103
vn 0.0861 -0.9921 -0.0908
vn 0.0935 -0.9859 -0.1388
vn 0.0186 -0.9959 -0.0884
vn 0.5419 -0.2550 -0.8008
vn 0.5162 -0.1613 -0.8412
vn 0.6103 -0.1386 -0.7800
vn 0.7224 -0.0004 -0.6915
vn 0.7224 0.0073 -0.6914
vn 0.0597 -0.7090 -0.7026
vn -0.0557 -0.2784 -0.9588
vn -0.1274 -0.4801 -0.8679
vn -0.0832 -0.2196 -0.9720
vn -0.6680 0.0004 -0.7442
vn -0.4951 0.0005 -0.8688
vn 0.1304 -0.9867 0.0969
vn 0.1342 -0.9855 0.1040
vn 0.1875 -0.9152 0.3566
vn 0.1298 -0.9038 0.4078
vn 0.6783 -0.5151 0.5241
vn 0.6172 -0.2342 0.7511
vn 0.0793 -0.9968 -0.0000
vn 0.0772 -0.9967 -0.0230
vn 0.0735 -0.9973 -0.0091
vn 0.2273 0.9697 -0.0899
vn 0.9283 0.0544 -0.3680
vn 0.0528 0.9946 -0.0896
vn 0.0288 0.9991 -0.0300
vn 0.0209 0.9989 -0.0409
vn 0.0198 0.9959 -0.0884
vn -0.0346 0.9111 0.4107
vn 0.9792 -0.0004 0.2028
vn 0.9651 -0.0173 0.2611
vn 0.1289 0.9797 0.1535
vn 0.1442 0.9643 0.2220
vn 0.1638 0.7344 0.6587
vn 0.1182 0.7168 0.6872
vn 0.5845 -0.0003 0.8114
vn 0.5946 -0.0201 0.8038
vn 0.6346 -0.0316 0.7722
vn 0.0562 0.8513 -0.5217
vn 0.0236 0.9338 -0.3571
vn 0.0965 0.9746 -0.2019
vn 0.1452 -0.4643 0.8737
vn 0.3524 -0.5298 0.7714
vn 0.4727 -0.2404 0.8478
vn 0.5473 -0.0803 0.8331
vn 0.1578 -0.0607 0.9856
vn 0.1328 -0.1821 0.9743
vn 0.1344 -0.1875 0.9730
vn 0.0530 0.2447 0.9681
vn 0.0199 0.1871 0.9821
vn 0.4886 0.1035 0.8664
vn 0.3449 0.3125 0.8851
vn 0.1490 0.2693 0.9515
vn 0.1403 0.2291 0.9632
vn 0.1866 0.0940 -0.9779
vn 0.1756 0.0898 -0.9803
vn 0.1756 -0.0901 -0.9803
vn 0.1865 -0.0942 -0.9779
vn -0.0567 0.2780 -0.9589
vn 0.0670 0.7280 -0.6823
vn 0.1625 -0.3000 -0.9400
vn 0.1112 -0.5121 -0.8517
vn 0.1263 -0.3386 -0.9324
vn -0.8113 0.0010 0.5846
vn -0.8114 0.0005 0.5845
vn -0.9024 0.0005 0.4308
vn -0.8787 -0.1861 0.4397
vn -0.8612 0.0005 0.5083
vn -0.0414 -0.9530 0.3001
vn -0.0413 -0.9526 0.3013
vn 0.0057 -0.9799 -0.1993
vn 0.0467 -0.8754 -0.4811
vn 0.0187 -0.9509 -0.3089
vn 0.0224 -0.9337 -0.3574
vn -0.2367 -0.8692 -0.4341
vn -0.6678 0.0008 -0.7443
vn -0.4282 0.6467 -0.6312
vn -0.4953 0.0006 -0.8687
vn 0.8184 0.0065 0.5746
vn 0.8511 -0.0004 0.5249
vn 0.8515 -0.0005 0.5244
vn 0.8025 -0.0005 0.5967
vn 0.8026 -0.0004 0.5965
vn 0.0907 -0.9957 0.0206
vn 0.0828 -0.9965 0.0061
vn 0.9750 -0.0106 0.2219
vn 0.9595 -0.0005 -0.2816
vn 0.9918 -0.0006 -0.1275
vn 0.9632 0.0180 -0.2681
vn 0.9925 -0.0012 -0.1223
vn 0.9919 -0.0006 -0.1273
vn 1.0000 -0.0006 -0.0030
vn 1.0000 -0.0006 -0.0027
vn -0.1145 0.9807 0.1588
vn -0.7409 0.3470 0.5750
vn -0.0383 0.9398 0.3395
vn -0.0396 0.9490 0.3127
vn -0.1226 0.9675 0.2210
vn -0.1163 0.9722 0.2033
vn -0.7211 -0.0333 0.6920
vn 0.0766 0.9853 -0.1526
vn 0.0956 0.9752 -0.1997
vn 0.0168 0.9886 -0.1497
vn 0.0198 0.9512 -0.3078
vn 0.0067 0.9796 -0.2007
vn 0.0173 0.9806 -0.1951
vn 0.1414 -0.2699 0.9525
vn 0.1423 -0.2868 0.9474
vn 0.4502 -0.3304 0.8295
vn 0.4520 -0.3264 0.8302
vn 0.0827 -0.2032 0.9756
vn 0.1012 -0.1944 0.9757
vn 0.1518 0.0623 0.9864
vn 0.1620 0.0818 0.9834
vn 0.1621 0.0814 0.9834
vn 0.0977 0.6308 -0.7698
vn 0.2030 0.2554 -0.9453
vn 0.1267 0.3385 -0.9324
vn -0.1161 -0.9804 0.1591
vn -0.1187 -0.9685 0.2191
vn -0.1197 -0.9678 0.2214
vn -0.3458 -0.8814 0.3219
vn 0.0156 -0.9886 -0.1496
vn 0.0162 -0.9807 -0.1951
vn 0.0846 -0.9763 -0.1991
vn 0.0911 -0.9840 -0.1532
vn -0.4986 0.0003 -0.8668
vn -0.4990 -0.0000 -0.8666
vn -0.6678 -0.0000 -0.7443
vn -0.6679 0.0004 -0.7442
vn 0.9973 -0.0039 0.0739
vn 0.9792 -0.0070 0.2028
vn 1.0000 -0.0005 -0.0000
vn 1.0000 -0.0006 -0.0000
vn -0.7625 0.0036 0.6470
vn -0.7663 0.0010 0.6424
vn -0.7316 -0.0140 0.6816
vn -0.7156 0.0004 0.6985
vn -0.7154 0.0005 0.6987
vn -0.7225 0.0264 0.6909
vn 0.0147 0.9854 -0.1695
vn 0.0160 0.9866 -0.1624
vn 0.0161 0.9852 -0.1709
vn 0.0987 0.0299 0.9947
vn 0.0985 -0.0558 0.9936
vn -0.8113 0.0005 0.5846
vn -0.8112 -0.0000 0.5847
vn -0.7663 0.0004 0.6424
vn -0.7458 -0.0000 0.6661
vn -0.7507 -0.0000 0.6606
vn 0.0148 -0.9867 -0.1621
vn 0.0137 -0.9856 -0.1683
vn 0.0149 -0.9854 -0.1697
vn -0.7316 0.0004 0.6817
vn -0.7310 0.0004 0.6824
vn -0.7309 0.0130 0.6823
vn -0.7458 0.0004 0.6661
vn 0.1517 0.0318 0.9879
vn 0.1515 0.0315 0.9880
vn 0.1558 0.0316 0.9873
vn 0.1516 0.0095 0.9884
vn -0.7550 0.0009 0.6557
vn -0.7580 0.0009 0.6522
vn -0.7580 0.0004 0.6522
vn -0.7510 0.0004 0.6603
vn -0.7458 0.0005 0.6661
vn -0.7536 0.0004 0.6573
vn -0.7532 0.0005 0.6577
vn -0.7663 -0.0000 0.6424
vn -0.7622 -0.0020 0.6474
vn -0.7580 -0.0000 0.6522
vn 0.1564 -0.0162 0.9876
vn 0.1558 0.0025 0.9878
vn 0.1520 0.0075 0.9884
vn 0.1519 0.0040 0.9884
s 0
f 1//1 2//1 3//1
f 4//2 5//2 6//2
f 4//3 6//3 7//3
f 8//4 7//4 6//4
f 9//5 4//5 7//5
f 10//6 11//6 12//6
f 13//7 5//7 9//7
f 13//8 9//8 14//8
f 13//9 14//9 15//9
f 16//10 8//10 6//10
f 17//11 2//11 18//11
f 17//12 18//12 19//12
f 17//13 20//13 21//13
f 22//14 18//14 23//14
f 22//15 19//15 18//15
f 22//16 23//16 24//16
f 25//17 14//17 9//17
f 25//18 10//18 12//18
f 25//19 26//19 10//19
f 27//20 1//20 3//20
f 28//21 29//21 30//21
f 28//22 30//22 31//22
f 32//23 29//23 33//23
f 32//24 8//24 30//24
f 32//25 30//25 29//25
f 34//26 31//26 30//26
f 34//27 35//27 31//27
f 34//28 36//28 37//28
f 34//29 16//29 36//29
f 34//30 30//30 8//30
f 34//31 8//31 16//31
f 38//32 31//32 35//32
f 38//33 24//33 23//33
f 38//34 22//34 24//34
f 38//35 35//35 19//35
f 38//36 19//36 22//36
f 39//23 33//23 29//23
f 39//37 29//37 40//37
f 41//38 42//38 43//38
f 41//39 40//39 29//39
f 41//40 29//40 28//40
f 44//41 9//41 5//41
f 44//42 5//42 4//42
f 44//43 4//43 9//43
f 45//44 10//44 26//44
f 46//45 26//45 7//45
f 46//46 7//46 8//46
f 47//47 48//47 49//47
f 47//48 32//48 48//48
f 47//49 50//49 32//49
f 51//50 52//50 53//50
f 54//51 31//51 38//51
f 55//52 28//52 31//52
f 56//53 57//53 58//53
f 56//54 49//54 57//54
f 56//55 59//55 49//55
f 56//56 58//56 59//56
f 60//57 57//57 49//57
f 60//58 49//58 48//58
f 60//59 48//59 57//59
f 61//60 49//60 59//60
f 61//61 11//61 10//61
f 61//62 10//62 45//62
f 62//63 59//63 58//63
f 62//64 12//64 11//64
f 63//65 5//65 13//65
f 63//66 17//66 21//66
f 63//67 13//67 17//67
f 63//68 16//68 6//68
f 63//68 6//68 5//68
f 64//69 13//69 15//69
f 64//70 3//70 13//70
f 64//71 1//71 27//71
f 64//72 27//72 3//72
f 64//73 65//73 1//73
f 64//74 15//74 66//74
f 67//75 21//75 36//75
f 67//76 36//76 16//76
f 67//77 16//77 63//77
f 68//78 3//78 2//78
f 68//79 2//79 17//79
f 68//80 17//80 13//80
f 68//81 13//81 3//81
f 69//82 17//82 19//82
f 70//83 66//83 15//83
f 70//84 58//84 66//84
f 70//85 15//85 14//85
f 71//86 66//86 58//86
f 71//87 58//87 57//87
f 71//88 57//88 66//88
f 72//89 66//89 57//89
f 72//90 57//90 48//90
f 73//91 74//91 58//91
f 73//92 62//92 74//92
f 73//93 25//93 12//93
f 73//94 12//94 62//94
f 75//95 9//95 7//95
f 75//96 26//96 25//96
f 76//97 1//97 77//97
f 76//98 77//98 52//98
f 76//99 52//99 2//99
f 76//100 2//100 1//100
f 78//101 52//101 77//101
f 78//102 53//102 52//102
f 79//103 1//103 65//103
f 80//104 64//104 66//104
f 80//105 65//105 64//105
f 81//23 32//23 33//23
f 81//106 48//106 32//106
f 81//107 72//107 48//107
f 82//108 32//108 50//108
f 82//109 8//109 32//109
f 82//110 46//110 8//110
f 82//111 50//111 46//111
f 83//112 35//112 34//112
f 84//113 39//113 40//113
f 84//114 78//114 77//114
f 85//115 41//115 28//115
f 85//116 42//116 41//116
f 85//117 55//117 42//117
f 85//118 28//118 55//118
f 86//119 41//119 43//119
f 86//120 43//120 53//120
f 86//121 53//121 78//121
f 87//122 49//122 45//122
f 87//123 45//123 26//123
f 87//124 47//124 49//124
f 88//125 18//125 2//125
f 88//126 2//126 52//126
f 89//127 51//127 53//127
f 89//128 53//128 43//128
f 89//129 43//129 90//129
f 89//130 90//130 18//130
f 89//131 18//131 51//131
f 91//132 54//132 38//132
f 91//133 38//133 23//133
f 92//134 43//134 42//134
f 92//135 42//135 55//135
f 92//136 55//136 31//136
f 92//137 31//137 54//137
f 93//138 61//138 59//138
f 93//139 11//139 61//139
f 93//140 62//140 11//140
f 93//141 59//141 62//141
f 94//142 61//142 45//142
f 94//143 45//143 49//143
f 95//144 62//144 58//144
f 95//145 58//145 74//145
f 95//146 74//146 62//146
f 96//147 97//147 36//147
f 96//148 36//148 21//148
f 98//149 67//149 63//149
f 98//150 63//150 21//150
f 98//151 21//151 67//151
f 99//152 20//152 17//152
f 99//153 17//153 69//153
f 100//154 14//154 25//154
f 101//155 73//155 58//155
f 101//156 100//156 25//156
f 101//157 25//157 73//157
f 102//158 25//158 9//158
f 103//159 75//159 7//159
f 103//160 7//160 26//160
f 103//161 26//161 75//161
f 104//162 40//162 41//162
f 104//163 84//163 40//163
f 104//164 78//164 84//164
f 104//165 86//165 78//165
f 104//166 41//166 86//166
f 105//167 77//167 1//167
f 105//168 1//168 79//168
f 105//169 84//169 77//169
f 106//170 80//170 66//170
f 106//170 66//170 72//170
f 106//171 81//171 80//171
f 106//172 72//172 81//172
f 107//173 65//173 80//173
f 107//174 80//174 81//174
f 107//175 108//175 65//175
f 107//176 81//176 108//176
f 109//177 37//177 36//177
f 109//178 36//178 97//178
f 110//179 83//179 34//179
f 110//180 34//180 37//180
f 110//181 109//181 83//181
f 110//182 37//182 109//182
f 111//183 69//183 19//183
f 112//184 50//184 47//184
f 112//185 47//185 87//185
f 112//186 46//186 50//186
f 113//187 87//187 26//187
f 113//188 26//188 46//188
f 113//189 112//189 87//189
f 114//190 51//190 18//190
f 114//191 18//191 88//191
f 114//192 88//192 52//192
f 114//193 52//193 51//193
f 115//194 23//194 18//194
f 115//195 18//195 90//195
f 116//196 54//196 91//196
f 116//197 92//197 54//197
f 116//198 43//198 92//198
f 117//199 94//199 49//199
f 117//200 49//200 61//200
f 117//201 61//201 94//201
f 118//202 21//202 20//202
f 118//203 20//203 99//203
f 118//204 99//204 69//204
f 118//205 119//205 21//205
f 120//206 70//206 14//206
f 120//207 100//207 101//207
f 120//208 101//208 58//208
f 120//209 58//209 70//209
f 121//210 75//210 25//210
f 121//211 25//211 102//211
f 121//212 102//212 9//212
f 121//213 9//213 75//213
f 122//214 105//214 79//214
f 122//113 39//113 84//113
f 122//215 84//215 105//215
f 122//216 33//216 39//216
f 122//217 79//217 65//217
f 122//217 65//217 108//217
f 122//216 108//216 81//216
f 122//216 81//216 33//216
f 123//218 109//218 97//218
f 123//219 97//219 96//219
f 124//220 69//220 111//220
f 125//221 111//221 19//221
f 125//222 19//222 35//222
f 125//223 35//223 83//223
f 126//224 113//224 46//224
f 126//225 46//225 112//225
f 126//226 112//226 113//226
f 127//227 91//227 23//227
f 127//228 23//228 115//228
f 128//229 96//229 21//229
f 128//230 21//230 119//230
f 128//231 123//231 96//231
f 129//232 69//232 124//232
f 130//233 118//233 69//233
f 130//233 69//233 129//233
f 131//234 120//234 14//234
f 131//235 14//235 100//235
f 131//236 100//236 120//236
f 132//237 124//237 111//237
f 132//238 111//238 125//238
f 132//239 125//239 83//239
f 132//240 129//240 124//240
f 133//241 116//241 91//241
f 133//242 91//242 127//242
f 133//243 43//243 116//243
f 133//244 127//244 115//244
f 134//245 83//245 109//245
f 134//246 109//246 123//246
f 134//247 123//247 130//247
f 135//248 130//248 129//248
f 135//249 132//249 83//249
f 135//240 129//240 132//240
f 135//250 134//250 130//250
f 135//251 83//251 134//251
f 136//247 130//247 123//247
f 136//231 123//231 128//231
f 136//252 128//252 119//252
f 136//253 119//253 118//253
f 136//254 118//254 130//254
f 137//255 90//255 43//255
f 137//256 43//256 133//256
f 137//257 133//257 115//257
f 137//258 115//258 90//258
